<?xml version="1.0" encoding="utf-8"?>
<!-- Generator: Adobe Illustrator 16.0.0, SVG Export Plug-In . SVG Version: 6.00 Build 0)  -->
<!DOCTYPE svg PUBLIC "-//W3C//DTD SVG 1.1//EN" "http://www.w3.org/Graphics/SVG/1.1/DTD/svg11.dtd">
<svg version="1.1" id="Layer_1" xmlns="http://www.w3.org/2000/svg" xmlns:xlink="http://www.w3.org/1999/xlink" x="0px" y="0px"
	 width="30px" height="30px" viewBox="0 0 30 30" enable-background="new 0 0 30 30" xml:space="preserve">
<path fill="#A2A2A2" d="M15,6.563C9.112,6.563,4.008,9.991,1.5,15c2.508,5.009,7.612,8.438,13.5,8.438
	c5.888,0,10.991-3.429,13.5-8.438C25.991,9.991,20.888,6.563,15,6.563z M21.656,11.038c1.586,1.012,2.931,2.367,3.94,3.962
	c-1.01,1.596-2.354,2.951-3.94,3.963c-1.994,1.271-4.295,1.943-6.656,1.943s-4.664-0.672-6.657-1.943
	C6.757,17.951,5.413,16.596,4.404,15c1.009-1.596,2.354-2.951,3.939-3.962c0.104-0.066,0.208-0.13,0.313-0.193
	c-0.263,0.721-0.406,1.499-0.406,2.31c0,3.729,3.022,6.751,6.75,6.751c3.728,0,6.749-3.022,6.749-6.751
	c0-0.811-0.143-1.589-0.406-2.31C21.448,10.907,21.553,10.971,21.656,11.038z M15,12.311c0,1.398-1.133,2.531-2.531,2.531
	c-1.398,0-2.531-1.133-2.531-2.531s1.133-2.531,2.531-2.531C13.867,9.779,15,10.913,15,12.311z"/>
</svg>
